<svg id="Layer_1" data-name="Layer 1" xmlns="http://www.w3.org/2000/svg" viewBox="0 0 100 100" fill="#03a090"><defs><style>.cls-1{}</style></defs><path class="cls-1" d="M50,1.4A48.6,48.6,0,1,0,98.6,50,48.6,48.6,0,0,0,50,1.4Zm5.75,23c0-.61.2-.87.84-.87q9.54,0,19.07,0c.88,0,.88.5.88,1.11V40c0,1.12,0,2.24,0,3.36,0,.61-.24.89-.86.88H71.33c-.67,0-.89-.28-.88-.94,0-2.81,0-5.63,0-8.44,0-.28.1-.6-.1-.88-.34.11-.52.41-.74.64q-13.48,13.5-26.94,27c-1,1-1,1-2,0-.83-.83-1.63-1.72-2.51-2.5-.68-.6-.69-1,0-1.65q9.07-9,18.06-18,4.48-4.5,8.95-9c.21-.2.48-.37.55-.71-.28-.26-.63-.14-.94-.15-2.67,0-5.33,0-8,0-.77,0-1.1-.24-1.07-1C55.79,27.14,55.77,25.75,55.75,24.36Zm20.76,46.2a6.07,6.07,0,0,1-6.14,6c-6.82-.12-13.63,0-20.44,0s-13.45-.1-20.17,0a6.17,6.17,0,0,1-6.32-6.35c0-3.72,0-7.45,0-11.17q0-14.62,0-29.24a6,6,0,0,1,4.84-6.16,6.8,6.8,0,0,1,1.27-.1c6.45,0,12.9,0,19.35,0,.92,0,1.22.26,1.17,1.18a37.25,37.25,0,0,0,0,3.81c0,.84-.27,1.12-1.09,1.11-2.73,0-5.45,0-8.18,0-3.39,0-6.78,0-10.17,0-.88,0-1.13.28-1.12,1.15q0,19.29,0,38.59c0,.87.26,1.14,1.13,1.13q19.34,0,38.69,0c.87,0,1.14-.26,1.14-1.13,0-6.06,0-12.11,0-18.16,0-1.26,0-1.27,1.26-1.27s2.6,0,3.9,0c.66,0,.93.24.93.91C76.54,57.35,76.6,64,76.51,70.56Z"/></svg>