<svg id="Layer_1" data-name="Layer 1" xmlns="http://www.w3.org/2000/svg" viewBox="0 0 100 100"><defs><style>.cls-1{fill:#03a090;}</style></defs><path class="cls-1" d="M49.93,76.43c-6.71,0-13.43-.1-20.14,0a6.17,6.17,0,0,1-6.32-6.35c0-3.72,0-7.44,0-11.16q0-14.59,0-29.2a6,6,0,0,1,4.84-6.15,5.9,5.9,0,0,1,1.26-.1c6.44,0,12.89,0,19.33,0,.92,0,1.22.27,1.17,1.18a37.25,37.25,0,0,0,0,3.81c0,.84-.27,1.12-1.09,1.11-2.72,0-5.44,0-8.17,0-3.38,0-6.77,0-10.16,0-.88,0-1.12.28-1.12,1.14q0,19.27,0,38.55c0,.88.26,1.14,1.13,1.13q19.32,0,38.65,0c.87,0,1.14-.25,1.13-1.13,0-6,0-12.09,0-18.14,0-1.26,0-1.26,1.25-1.27s2.6,0,3.9,0c.66,0,.93.24.93.9,0,6.59,0,13.18,0,19.77a6.06,6.06,0,0,1-6.14,6C63.54,76.35,56.73,76.43,49.93,76.43Z"/><path class="cls-1" d="M70.33,34a2.12,2.12,0,0,0-.75.64l-26.9,27c-1,1-1,1-2,0-.83-.83-1.62-1.71-2.5-2.49-.69-.6-.69-1,0-1.65q9-9,18-18,4.49-4.5,8.94-9c.21-.21.48-.37.55-.71-.28-.27-.62-.14-.94-.15-2.66,0-5.32,0-8,0-.77,0-1.09-.24-1.06-1.05,0-1.39,0-2.78,0-4.17,0-.6.21-.87.85-.86q9.52,0,19,0c.87,0,.87.51.87,1.12V40c0,1.12,0,2.24,0,3.35,0,.61-.24.89-.86.88-1.45,0-2.9,0-4.35,0-.68,0-.89-.28-.88-.93,0-2.81,0-5.63,0-8.44A1.43,1.43,0,0,0,70.33,34Z"/></svg>