<svg id="Layer_1" data-name="Layer 1" xmlns="http://www.w3.org/2000/svg" viewBox="0 0 100 100" fill="#03a090"><defs><style>.cls-1{}</style></defs><path class="cls-1" d="M61.57,84.19c0-2.33,0-4.66,0-7a10.27,10.27,0,0,0-1.86-5.6c-1.12-1.63-1.11-1.58.94-1.92a38.9,38.9,0,0,0,6.63-1.55c7.79-2.74,11.8-8.42,12.92-16.4a25.76,25.76,0,0,0-.1-9.1,15.87,15.87,0,0,0-3.35-7.16A3,3,0,0,1,76,32.31c1-3.13.44-6.24-.39-9.33-.39-1.43-1.19-1.74-2.61-1.5a27.06,27.06,0,0,0-9.58,4.07,3.6,3.6,0,0,1-3,.53,45.36,45.36,0,0,0-20.76,0,4.25,4.25,0,0,1-3.59-.63,25.1,25.1,0,0,0-9.61-4,1.72,1.72,0,0,0-2.25,1.33,17.81,17.81,0,0,0-.41,9.84,2.25,2.25,0,0,1-.31,2.31c-4.19,4.79-4.61,10.51-3.93,16.45.6,5.24,2.46,9.9,6.65,13.35,3.63,3,8,4.25,12.52,5,.38.06.77.08,1.16.14,1,.16,1.37.53.53,1.45a8,8,0,0,0-1.92,4,2.36,2.36,0,0,1-1.91,2c-5.39,1.51-9.27.6-12.39-4-1.41-2.06-2.93-3.91-5.33-4.83A8.77,8.77,0,0,0,16.86,68c-.7-.09-1.58-.22-1.92.6s.51,1.27,1.08,1.63c2.89,1.76,4.51,4.49,5.86,7.46a10.77,10.77,0,0,0,9,6.46A19.22,19.22,0,0,0,36.51,84c1.28-.21,1.68.24,1.63,1.49-.07,1.94,0,3.89,0,5.83,0,2.71-1.51,3.82-4.13,3a45.52,45.52,0,0,1-14.53-7.93C9.32,78.2,3.15,67.64,1.78,54.69,0,37.42,5.91,23.07,19.42,12.1A47.2,47.2,0,0,1,54.06,1.58a48,48,0,0,1,44,40.9,47.38,47.38,0,0,1-30.36,51c-.67.25-1.34.52-2,.75-2.4.8-4-.24-4-2.76s0-4.88,0-7.32Z"/></svg>