<svg id="Layer_1" data-name="Layer 1" xmlns="http://www.w3.org/2000/svg" viewBox="0 0 100 100" fill="#03a090"><defs><style>.cls-1{}</style></defs><path class="cls-1" d="M50.32,1.4c24.95-.24,48.4,20.23,48.3,48.91A48.62,48.62,0,1,1,50.32,1.4ZM42.75,57h0c0,5.27,0,10.54,0,15.81,0,1.33.37,1.9,1.79,1.84,2.55-.09,5.11-.1,7.66,0,1.51.06,1.89-.53,1.87-1.94,0-5.66,0-11.32,0-17a14.33,14.33,0,0,1,.31-3.13,6.8,6.8,0,0,1,6.57-5.15c2.86,0,4.81,1.78,5.6,5a13.57,13.57,0,0,1,.3,3.3c0,5.66,0,11.32,0,17,0,1.41.32,2,1.85,1.94,2.6-.11,5.22-.09,7.82,0,1.36,0,1.85-.38,1.84-1.78-.07-6.49,0-13-.06-19.47a20.21,20.21,0,0,0-1.33-7c-3.44-9.24-16-9.93-20.82-4.21-.5.59-.92,1.86-1.69,1.53S54,42.15,54,41.3c.06-1.4-.52-1.85-1.87-1.82-2.5.07-5,.09-7.49,0-1.44,0-2,.42-1.94,1.9C42.8,46.6,42.75,51.81,42.75,57Zm-7.08.15c0-5.27,0-10.54,0-15.81,0-1.32-.37-1.93-1.8-1.89-2.6.08-5.21.06-7.82,0-1.2,0-1.68.42-1.67,1.65q0,16,0,32c0,1.27.52,1.61,1.7,1.59,2.55-.06,5.11-.11,7.66,0,1.62.08,2-.59,1.94-2C35.63,67.49,35.67,62.33,35.67,57.18ZM30.05,34.1c3.74,0,6.45-2.4,6.48-5.72a6.14,6.14,0,0,0-6.41-6.05c-3.82,0-6.39,2.46-6.38,6S26.28,34.11,30.05,34.1Z"/></svg>