<svg id="Layer_1" data-name="Layer 1" xmlns="http://www.w3.org/2000/svg" viewBox="0 0 100 100"><defs><style>.cls-1{fill:#03a090;}</style></defs><path class="cls-1" d="M50.06,1.39a48.31,48.31,0,0,1,48.54,49C98.54,78.19,75.26,99.2,48.76,98.6a48.61,48.61,0,0,1,1.3-97.21ZM27.25,70.75a31.56,31.56,0,0,0,21.51,3.77C65.49,71.66,75,57.21,75.21,42.92a3.17,3.17,0,0,1,1.35-2.81,13.16,13.16,0,0,0,3.6-4c-1.85.35-3.37,1.28-5.43.92,1.76-1.6,3.46-2.95,4.11-5.32-1.79.65-3.36,1.27-5,1.8a2.33,2.33,0,0,1-2.48-.35c-3.82-3.17-8.07-3.88-12.53-1.56a10.58,10.58,0,0,0-6,11.11c.13,1.47-.48,1.59-1.6,1.46A32.35,32.35,0,0,1,30.49,33.69c-1.07-1.16-1.19-1.14-1.74.39a11.19,11.19,0,0,0,3,12.18c.33.3.93.45.81,1.19a6.41,6.41,0,0,1-3-.62c-1.31-.55-1.6-.07-1.38,1.12a11,11,0,0,0,6.76,8.46c.57.26,1.33.22,1.69.93a4.18,4.18,0,0,1-2.9.5c-1.37-.06-1.57.44-.92,1.54A11,11,0,0,0,41,65c.41.07,1-.09,1.09.5.06.41-.42.61-.72.83a22,22,0,0,1-5.78,2.91A35.88,35.88,0,0,1,27.25,70.75Z"/></svg>