
<svg xmlns="http://www.w3.org/2000/svg" viewBox="0 0 1440 320" preserveAspectRatio="none "
      style="
      transform: scaleX(-1) scaleY(10) rotate(90deg);">
      <path fill="#FEFEFA" fill-opacity="1"
        d="M0,96L30,117.3C60,139,120,181,180,181.3C240,181,300,139,360,133.3C420,128,480,160,540,149.3C600,139,660,85,720,96C780,107,840,181,900,186.7C960,192,1020,128,1080,117.3C1140,107,1200,149,1260,165.3C1320,181,1380,171,1410,165.3L1440,160L1440,0L1410,0C1380,0,1320,0,1260,0C1200,0,1140,0,1080,0C1020,0,960,0,900,0C840,0,780,0,720,0C660,0,600,0,540,0C480,0,420,0,360,0C300,0,240,0,180,0C120,0,60,0,30,0L0,0Z">
      </path>
    </svg>